<svg version="1.1" xmlns="http://www.w3.org/2000/svg" viewBox="0 0 265.90625 838.4765625" width="266" height="839">
  <rect x="0" y="0" width="265.90625" height="838.4765625" fill="#ffffff"></rect><g transform="translate(23.453125 21.1630859375) rotate(0 82.03125 396)"><text x="0" y="0" font-family="Cascadia, Segoe UI Emoji, monospace" font-size="20px" fill="#1e1e1e" text-anchor="start" style="white-space: pre;" direction="ltr" dominant-baseline="text-before-edge">factorial(6)</text><text x="0" y="24" font-family="Cascadia, Segoe UI Emoji, monospace" font-size="20px" fill="#1e1e1e" text-anchor="start" style="white-space: pre;" direction="ltr" dominant-baseline="text-before-edge"></text><text x="0" y="48" font-family="Cascadia, Segoe UI Emoji, monospace" font-size="20px" fill="#1e1e1e" text-anchor="start" style="white-space: pre;" direction="ltr" dominant-baseline="text-before-edge">result = 1</text><text x="0" y="72" font-family="Cascadia, Segoe UI Emoji, monospace" font-size="20px" fill="#1e1e1e" text-anchor="start" style="white-space: pre;" direction="ltr" dominant-baseline="text-before-edge">while(6 &gt; 1) {</text><text x="0" y="96" font-family="Cascadia, Segoe UI Emoji, monospace" font-size="20px" fill="#1e1e1e" text-anchor="start" style="white-space: pre;" direction="ltr" dominant-baseline="text-before-edge">  result *= 6</text><text x="0" y="120" font-family="Cascadia, Segoe UI Emoji, monospace" font-size="20px" fill="#1e1e1e" text-anchor="start" style="white-space: pre;" direction="ltr" dominant-baseline="text-before-edge">  6--</text><text x="0" y="144" font-family="Cascadia, Segoe UI Emoji, monospace" font-size="20px" fill="#1e1e1e" text-anchor="start" style="white-space: pre;" direction="ltr" dominant-baseline="text-before-edge">}</text><text x="0" y="168" font-family="Cascadia, Segoe UI Emoji, monospace" font-size="20px" fill="#1e1e1e" text-anchor="start" style="white-space: pre;" direction="ltr" dominant-baseline="text-before-edge"></text><text x="0" y="192" font-family="Cascadia, Segoe UI Emoji, monospace" font-size="20px" fill="#1e1e1e" text-anchor="start" style="white-space: pre;" direction="ltr" dominant-baseline="text-before-edge">result = 6</text><text x="0" y="216" font-family="Cascadia, Segoe UI Emoji, monospace" font-size="20px" fill="#1e1e1e" text-anchor="start" style="white-space: pre;" direction="ltr" dominant-baseline="text-before-edge">while(5 &gt; 1) {</text><text x="0" y="240" font-family="Cascadia, Segoe UI Emoji, monospace" font-size="20px" fill="#1e1e1e" text-anchor="start" style="white-space: pre;" direction="ltr" dominant-baseline="text-before-edge">  result *= 5</text><text x="0" y="264" font-family="Cascadia, Segoe UI Emoji, monospace" font-size="20px" fill="#1e1e1e" text-anchor="start" style="white-space: pre;" direction="ltr" dominant-baseline="text-before-edge">  5--</text><text x="0" y="288" font-family="Cascadia, Segoe UI Emoji, monospace" font-size="20px" fill="#1e1e1e" text-anchor="start" style="white-space: pre;" direction="ltr" dominant-baseline="text-before-edge">}</text><text x="0" y="312" font-family="Cascadia, Segoe UI Emoji, monospace" font-size="20px" fill="#1e1e1e" text-anchor="start" style="white-space: pre;" direction="ltr" dominant-baseline="text-before-edge"></text><text x="0" y="336" font-family="Cascadia, Segoe UI Emoji, monospace" font-size="20px" fill="#1e1e1e" text-anchor="start" style="white-space: pre;" direction="ltr" dominant-baseline="text-before-edge">result = 30</text><text x="0" y="360" font-family="Cascadia, Segoe UI Emoji, monospace" font-size="20px" fill="#1e1e1e" text-anchor="start" style="white-space: pre;" direction="ltr" dominant-baseline="text-before-edge">while(4 &gt; 1) {</text><text x="0" y="384" font-family="Cascadia, Segoe UI Emoji, monospace" font-size="20px" fill="#1e1e1e" text-anchor="start" style="white-space: pre;" direction="ltr" dominant-baseline="text-before-edge">  result *= 4</text><text x="0" y="408" font-family="Cascadia, Segoe UI Emoji, monospace" font-size="20px" fill="#1e1e1e" text-anchor="start" style="white-space: pre;" direction="ltr" dominant-baseline="text-before-edge">  4--</text><text x="0" y="432" font-family="Cascadia, Segoe UI Emoji, monospace" font-size="20px" fill="#1e1e1e" text-anchor="start" style="white-space: pre;" direction="ltr" dominant-baseline="text-before-edge">}</text><text x="0" y="456" font-family="Cascadia, Segoe UI Emoji, monospace" font-size="20px" fill="#1e1e1e" text-anchor="start" style="white-space: pre;" direction="ltr" dominant-baseline="text-before-edge"></text><text x="0" y="480" font-family="Cascadia, Segoe UI Emoji, monospace" font-size="20px" fill="#1e1e1e" text-anchor="start" style="white-space: pre;" direction="ltr" dominant-baseline="text-before-edge">result = 120</text><text x="0" y="504" font-family="Cascadia, Segoe UI Emoji, monospace" font-size="20px" fill="#1e1e1e" text-anchor="start" style="white-space: pre;" direction="ltr" dominant-baseline="text-before-edge">while(3 &gt; 1) {</text><text x="0" y="528" font-family="Cascadia, Segoe UI Emoji, monospace" font-size="20px" fill="#1e1e1e" text-anchor="start" style="white-space: pre;" direction="ltr" dominant-baseline="text-before-edge">  result *= 3</text><text x="0" y="552" font-family="Cascadia, Segoe UI Emoji, monospace" font-size="20px" fill="#1e1e1e" text-anchor="start" style="white-space: pre;" direction="ltr" dominant-baseline="text-before-edge">  3--</text><text x="0" y="576" font-family="Cascadia, Segoe UI Emoji, monospace" font-size="20px" fill="#1e1e1e" text-anchor="start" style="white-space: pre;" direction="ltr" dominant-baseline="text-before-edge">}</text><text x="0" y="600" font-family="Cascadia, Segoe UI Emoji, monospace" font-size="20px" fill="#1e1e1e" text-anchor="start" style="white-space: pre;" direction="ltr" dominant-baseline="text-before-edge"></text><text x="0" y="624" font-family="Cascadia, Segoe UI Emoji, monospace" font-size="20px" fill="#1e1e1e" text-anchor="start" style="white-space: pre;" direction="ltr" dominant-baseline="text-before-edge">result = 360</text><text x="0" y="648" font-family="Cascadia, Segoe UI Emoji, monospace" font-size="20px" fill="#1e1e1e" text-anchor="start" style="white-space: pre;" direction="ltr" dominant-baseline="text-before-edge">while(2 &gt; 1) {</text><text x="0" y="672" font-family="Cascadia, Segoe UI Emoji, monospace" font-size="20px" fill="#1e1e1e" text-anchor="start" style="white-space: pre;" direction="ltr" dominant-baseline="text-before-edge">  result *= 2</text><text x="0" y="696" font-family="Cascadia, Segoe UI Emoji, monospace" font-size="20px" fill="#1e1e1e" text-anchor="start" style="white-space: pre;" direction="ltr" dominant-baseline="text-before-edge">  2--</text><text x="0" y="720" font-family="Cascadia, Segoe UI Emoji, monospace" font-size="20px" fill="#1e1e1e" text-anchor="start" style="white-space: pre;" direction="ltr" dominant-baseline="text-before-edge">}</text><text x="0" y="744" font-family="Cascadia, Segoe UI Emoji, monospace" font-size="20px" fill="#1e1e1e" text-anchor="start" style="white-space: pre;" direction="ltr" dominant-baseline="text-before-edge"></text><text x="0" y="768" font-family="Cascadia, Segoe UI Emoji, monospace" font-size="20px" fill="#1e1e1e" text-anchor="start" style="white-space: pre;" direction="ltr" dominant-baseline="text-before-edge">result = 720</text></g><g stroke-linecap="round" transform="translate(10.6328125 10) rotate(0 91.837890625 409.23828125)"><path d="M0 0 C48.5 0, 97 0, 183.68 0 M0 0 C38.1 0, 76.21 0, 183.68 0 M183.68 0 C183.68 322.39, 183.68 644.78, 183.68 818.48 M183.68 0 C183.68 209.12, 183.68 418.24, 183.68 818.48 M183.68 818.48 C136.65 818.48, 89.63 818.48, 0 818.48 M183.68 818.48 C139.2 818.48, 94.72 818.48, 0 818.48 M0 818.48 C0 520.36, 0 222.25, 0 0 M0 818.48 C0 552.95, 0 287.41, 0 0" stroke="#1e1e1e" stroke-width="2" fill="none"></path></g><g stroke-linecap="round"><g transform="translate(10.42578125 59.25) rotate(0 91.15625 -0.71875)"><path d="M0 0 C72.12 -0.57, 144.24 -1.14, 182.31 -1.44 M0 0 C71.69 -0.57, 143.39 -1.13, 182.31 -1.44" stroke="#1e1e1e" stroke-width="2" fill="none"></path></g></g><g stroke-linecap="round"><g transform="translate(12.23046875 202.26953125) rotate(0 91.15625 -0.71875)"><path d="M0 0 C36.59 -0.29, 73.19 -0.58, 182.31 -1.44" stroke="#1e1e1e" stroke-width="2.5" fill="none" stroke-dasharray="8 10"></path></g></g><g stroke-linecap="round"><g transform="translate(10.625 347.87109375) rotate(0 91.15625 -0.71875)"><path d="M0 0 C51.33 -0.4, 102.66 -0.81, 182.31 -1.44" stroke="#1e1e1e" stroke-width="2.5" fill="none" stroke-dasharray="8 10"></path></g></g><g stroke-linecap="round"><g transform="translate(11.01953125 492.28125) rotate(0 91.15625 -0.71875)"><path d="M0 0 C57.44 -0.45, 114.88 -0.91, 182.31 -1.44" stroke="#1e1e1e" stroke-width="2.5" fill="none" stroke-dasharray="8 10"></path></g></g><g stroke-linecap="round"><g transform="translate(10 638.734375) rotate(0 91.15625 -0.71875)"><path d="M0 0 C69.77 -0.55, 139.54 -1.1, 182.31 -1.44" stroke="#1e1e1e" stroke-width="2.5" fill="none" stroke-dasharray="8 10"></path></g></g><g stroke-linecap="round"><g transform="translate(10.375 779.0859375) rotate(0 91.716796875 -0.111328125)"><path d="M0 0 C60.87 -0.07, 121.75 -0.15, 183.43 -0.22 M0 0 C42.98 -0.05, 85.97 -0.1, 183.43 -0.22" stroke="#1e1e1e" stroke-width="2" fill="none"></path></g></g><g stroke-linecap="round"><g transform="translate(253.8515625 18.4609375) rotate(0 -21.484375 392.23828125)"><path d="M0 0 C0.51 193.83, 1.02 387.65, 2.05 783.86 M0 0 C0.77 295.38, 1.55 590.76, 2.05 783.86 M2.05 783.86 C-13.35 784.06, -28.75 784.26, -45.02 784.48 M2.05 783.86 C-8.14 783.99, -18.33 784.12, -45.02 784.48" stroke="#e03131" stroke-width="2" fill="none"></path></g><g transform="translate(253.8515625 18.4609375) rotate(0 -21.484375 392.23828125)"><path d="M-45.02 784.48 L-31.51 777.96 L-31.35 790.64 L-45.02 784.48" stroke="none" stroke-width="0" fill="#e03131" fill-rule="evenodd"></path><path d="M-45.02 784.48 C-41.68 782.86, -38.34 781.25, -31.51 777.96 M-45.02 784.48 C-39.93 782.02, -34.84 779.56, -31.51 777.96 M-31.51 777.96 C-31.46 782.11, -31.4 786.25, -31.35 790.64 M-31.51 777.96 C-31.48 780.7, -31.44 783.45, -31.35 790.64 M-31.35 790.64 C-34.7 789.13, -38.05 787.62, -45.02 784.48 M-31.35 790.64 C-35.52 788.76, -39.69 786.88, -45.02 784.48 M-45.02 784.48 C-45.02 784.48, -45.02 784.48, -45.02 784.48 M-45.02 784.48 C-45.02 784.48, -45.02 784.48, -45.02 784.48" stroke="#e03131" stroke-width="2" fill="none"></path></g></g></svg>