<svg version="1.1" xmlns="http://www.w3.org/2000/svg" viewBox="0 0 321.31640625 228.421875" width="321" height="228">
  <rect x="0" y="0" width="321.31640625" height="228.421875" fill="#ffffff"></rect><g transform="translate(10 26.421875) rotate(0 134.765625 96)"><text x="0" y="0" font-family="Cascadia, Segoe UI Emoji, monospace" font-size="20px" fill="#1e1e1e" text-anchor="start" style="white-space: pre;" direction="ltr" dominant-baseline="text-before-edge">factorial(6)</text><text x="0" y="24" font-family="Cascadia, Segoe UI Emoji, monospace" font-size="20px" fill="#1e1e1e" text-anchor="start" style="white-space: pre;" direction="ltr" dominant-baseline="text-before-edge">factorialHelper(6, 1)</text><text x="0" y="48" font-family="Cascadia, Segoe UI Emoji, monospace" font-size="20px" fill="#1e1e1e" text-anchor="start" style="white-space: pre;" direction="ltr" dominant-baseline="text-before-edge">factorialHelper(5, 6)</text><text x="0" y="72" font-family="Cascadia, Segoe UI Emoji, monospace" font-size="20px" fill="#1e1e1e" text-anchor="start" style="white-space: pre;" direction="ltr" dominant-baseline="text-before-edge">factorialHelper(4, 30)</text><text x="0" y="96" font-family="Cascadia, Segoe UI Emoji, monospace" font-size="20px" fill="#1e1e1e" text-anchor="start" style="white-space: pre;" direction="ltr" dominant-baseline="text-before-edge">factorialHelper(3, 120)</text><text x="0" y="120" font-family="Cascadia, Segoe UI Emoji, monospace" font-size="20px" fill="#1e1e1e" text-anchor="start" style="white-space: pre;" direction="ltr" dominant-baseline="text-before-edge">factorialHelper(2, 360)</text><text x="0" y="144" font-family="Cascadia, Segoe UI Emoji, monospace" font-size="20px" fill="#1e1e1e" text-anchor="start" style="white-space: pre;" direction="ltr" dominant-baseline="text-before-edge">factorialHelper(1, 720)</text><text x="0" y="168" font-family="Cascadia, Segoe UI Emoji, monospace" font-size="20px" fill="#1e1e1e" text-anchor="start" style="white-space: pre;" direction="ltr" dominant-baseline="text-before-edge">720</text></g><g stroke-linecap="round"><g transform="translate(319.91015625 10) rotate(0 -24.41015625 99.6640625)"><path d="M-8.59 0 C-8.77 77.75, -8.95 155.51, -9.05 199.33 M-8.59 0 C-8.72 57.11, -8.86 114.22, -9.05 199.33 M-9.05 199.33 C-17.24 199.22, -25.44 199.11, -40.23 198.91 M-9.05 199.33 C-20.96 199.17, -32.87 199.01, -40.23 198.91" stroke="#e03131" stroke-width="2" fill="none"></path></g><g transform="translate(319.91015625 10) rotate(0 -24.41015625 99.6640625)"><path d="M-40.23 198.91 L-26.55 192.75 L-26.72 205.43 L-40.23 198.91" stroke="none" stroke-width="0" fill="#e03131" fill-rule="evenodd"></path><path d="M-40.23 198.91 C-34.89 196.51, -29.56 194.11, -26.55 192.75 M-40.23 198.91 C-36.31 197.15, -32.39 195.38, -26.55 192.75 M-26.55 192.75 C-26.59 196.09, -26.64 199.42, -26.72 205.43 M-26.55 192.75 C-26.61 197.6, -26.68 202.44, -26.72 205.43 M-26.72 205.43 C-29.5 204.09, -32.27 202.75, -40.23 198.91 M-26.72 205.43 C-30.27 203.72, -33.81 202.01, -40.23 198.91 M-40.23 198.91 C-40.23 198.91, -40.23 198.91, -40.23 198.91 M-40.23 198.91 C-40.23 198.91, -40.23 198.91, -40.23 198.91" stroke="#e03131" stroke-width="2" fill="none"></path></g></g></svg>