<svg version="1.1" xmlns="http://www.w3.org/2000/svg" viewBox="0 0 523.1250871855339 308" style="max-width: 500px;">
  <rect x="0" y="0" width="523.1250871855339" height="308" fill="#ffffff"></rect><g transform="translate(10 10) rotate(0 234.375 144)"><text x="0" y="0" font-family="Cascadia, Segoe UI Emoji,monospace" font-size="20px" fill="#1e1e1e" text-anchor="start" style="white-space: pre;" direction="ltr" dominant-baseline="text-before-edge">factorial(6)</text><text x="0" y="24" font-family="Cascadia, Segoe UI Emoji,monospace" font-size="20px" fill="#1e1e1e" text-anchor="start" style="white-space: pre;" direction="ltr" dominant-baseline="text-before-edge">6 * factorial(5)</text><text x="0" y="48" font-family="Cascadia, Segoe UI Emoji,monospace" font-size="20px" fill="#1e1e1e" text-anchor="start" style="white-space: pre;" direction="ltr" dominant-baseline="text-before-edge">6 * (5 * factorial(4))</text><text x="0" y="72" font-family="Cascadia, Segoe UI Emoji,monospace" font-size="20px" fill="#1e1e1e" text-anchor="start" style="white-space: pre;" direction="ltr" dominant-baseline="text-before-edge">6 * (5 * (4 * factorial(3)))</text><text x="0" y="96" font-family="Cascadia, Segoe UI Emoji,monospace" font-size="20px" fill="#1e1e1e" text-anchor="start" style="white-space: pre;" direction="ltr" dominant-baseline="text-before-edge">6 * (5 * (4 * (3 * factorial(2))))</text><text x="0" y="120" font-family="Cascadia, Segoe UI Emoji,monospace" font-size="20px" fill="#1e1e1e" text-anchor="start" style="white-space: pre;" direction="ltr" dominant-baseline="text-before-edge">6 * (5 * (4 * (3 * (2 * factorial(1)))))</text><text x="0" y="144" font-family="Cascadia, Segoe UI Emoji,monospace" font-size="20px" fill="#1e1e1e" text-anchor="start" style="white-space: pre;" direction="ltr" dominant-baseline="text-before-edge">6 * (5 * (4 * (3 * (2 * 1))))</text><text x="0" y="168" font-family="Cascadia, Segoe UI Emoji,monospace" font-size="20px" fill="#1e1e1e" text-anchor="start" style="white-space: pre;" direction="ltr" dominant-baseline="text-before-edge">6 * (5 * (4 * (3 * 2)))</text><text x="0" y="192" font-family="Cascadia, Segoe UI Emoji,monospace" font-size="20px" fill="#1e1e1e" text-anchor="start" style="white-space: pre;" direction="ltr" dominant-baseline="text-before-edge">6 * (5 * (4 * 6))</text><text x="0" y="216" font-family="Cascadia, Segoe UI Emoji,monospace" font-size="20px" fill="#1e1e1e" text-anchor="start" style="white-space: pre;" direction="ltr" dominant-baseline="text-before-edge">6 * (5 * 24)</text><text x="0" y="240" font-family="Cascadia, Segoe UI Emoji,monospace" font-size="20px" fill="#1e1e1e" text-anchor="start" style="white-space: pre;" direction="ltr" dominant-baseline="text-before-edge">6 * 120</text><text x="0" y="264" font-family="Cascadia, Segoe UI Emoji,monospace" font-size="20px" fill="#1e1e1e" text-anchor="start" style="white-space: pre;" direction="ltr" dominant-baseline="text-before-edge">720</text></g><g stroke-linecap="round"><g transform="translate(151.9921875 16.68359375) rotate(0 142.07621546776704 133.490234375)"><path d="M0 0 C60.13 20.93, 373.58 81.07, 360.75 125.57 C347.92 170.06, -4.03 243.41, -76.98 266.98 M0 0 C60.13 20.93, 373.58 81.07, 360.75 125.57 C347.92 170.06, -4.03 243.41, -76.98 266.98" stroke="#e03131" stroke-width="2" fill="none"></path></g><g transform="translate(151.9921875 16.68359375) rotate(0 142.07621546776704 133.490234375)"><path d="M-76.98 266.98 L-65.43 257.41 L-62.22 269.67 L-76.98 266.98" stroke="none" stroke-width="0" fill="#e03131" fill-rule="evenodd"></path><path d="M-76.98 266.98 C-74.12 264.61, -71.27 262.24, -65.43 257.41 M-76.98 266.98 C-73.95 264.47, -70.92 261.96, -65.43 257.41 M-65.43 257.41 C-64.7 260.2, -63.97 263, -62.22 269.67 M-65.43 257.41 C-64.58 260.67, -63.73 263.93, -62.22 269.67 M-62.22 269.67 C-67.54 268.7, -72.85 267.73, -76.98 266.98 M-62.22 269.67 C-67.93 268.63, -73.63 267.59, -76.98 266.98 M-76.98 266.98 C-76.98 266.98, -76.98 266.98, -76.98 266.98 M-76.98 266.98 C-76.98 266.98, -76.98 266.98, -76.98 266.98" stroke="#e03131" stroke-width="2" fill="none"></path></g></g></svg>