<?xml version="1.0" encoding="UTF-8" standalone="no"?>
<svg xmlns:dc="http://purl.org/dc/elements/1.1/" xmlns:cc="http://creativecommons.org/ns#" xmlns:rdf="http://www.w3.org/1999/02/22-rdf-syntax-ns#" xmlns:svg="http://www.w3.org/2000/svg" xmlns="http://www.w3.org/2000/svg" id="svg6" preserveAspectRatio="xMidYMid meet" viewBox="0 0 1024.000000 1024.000000" height="1024.000000pt" width="1024.000000pt" version="1.0">
	<defs id="defs10" />
	<metadata id="metadata2">
		Created by potrace 1.11, written by Peter Selinger 2001-2013
		<RDF>
			<Work rdf:about="">
				<format>
					image/svg+xml
				</format>
				<type rdf:resource="http://purl.org/dc/dcmitype/StillImage" />
				<title>
				</title>
			</Work>
		</RDF>
	</metadata>
	<circle id="circle4" />
	<circle r="511.52063" cy="512" cx="512" id="path12" style="fill:#000000;stroke-width:0.71304142" />
	<path id="path3721" d="m 276.00542,667.19362 204.47143,118.05164 a 219.88887,219.88887 0 0 1 -161.26153,43.20989 219.88887,219.88887 0 0 1 -43.2099,-161.26153 z m 364.958,8.49479 20.16014,99.92069 -32.47937,56.25591 -467.09631,-269.67818 32.47936,-56.25591 96.61391,-32.50117 97.84262,-169.46839 c 58.70558,-101.68105 181.76404,-146.006 302.33127,-119.13581 83.55387,90.97918 106.69658,219.71342 47.991,321.39447 z M 529.93512,463.47774 a 67.419556,67.419556 0 1 0 67.41956,-116.77409 67.419556,67.419556 0 0 0 -67.41956,116.77409 z" style="fill:#ffffff;stroke-width:33.70977783" />
</svg>
